<svg viewBox="0 0 980 600" width="980" height="600" xmlns="http://www.w3.org/2000/svg" font-family="Inter, system-ui, -apple-system, sans-serif">
  <defs>
    <filter id="shadow" x="-4%" y="-4%" width="108%" height="112%">
      <feDropShadow dx="0" dy="3" stdDeviation="6" flood-color="#000" flood-opacity="0.25"/>
    </filter>
    <marker id="arr-red" markerWidth="7" markerHeight="5" refX="6" refY="2.5" orient="auto">
      <path d="M0,0.3 L6,2.5 L0,4.7" fill="none" stroke="#ef4444" stroke-width="1"/>
    </marker>
    <marker id="arr-pur" markerWidth="7" markerHeight="5" refX="6" refY="2.5" orient="auto">
      <path d="M0,0.3 L6,2.5 L0,4.7" fill="none" stroke="#a78bfa" stroke-width="1"/>
    </marker>
  </defs>

  <!-- Background -->
  <rect width="980" height="600" rx="12" fill="#0f172a"/>
  <pattern id="grid" width="20" height="20" patternUnits="userSpaceOnUse">
    <path d="M20,0 L0,0 0,20" fill="none" stroke="#1e293b" stroke-width="0.4"/>
  </pattern>
  <rect width="980" height="600" fill="url(#grid)" opacity="0.5" rx="12"/>

  <!-- Title -->
  <text x="490" y="32" text-anchor="middle" font-size="17" font-weight="800" fill="#f1f5f9" letter-spacing="-0.3">Power Supply Wiring</text>
  <text x="490" y="50" text-anchor="middle" font-size="11" fill="#64748b">12V PSU · Voltage regulator for ESP · Bulk capacitor · Hopper 12-24V ⎓ 450mA</text>

  <!-- ═══ 12V PSU ═══ -->
  <g filter="url(#shadow)">
    <rect x="50" y="140" width="180" height="140" rx="10" fill="#1e293b" stroke="#334155" stroke-width="1.5"/>
    <rect x="50" y="140" width="180" height="34" rx="10" fill="#4a1d1d"/>
    <rect x="50" y="164" width="180" height="10" fill="#4a1d1d"/>
    <text x="140" y="162" text-anchor="middle" font-size="12" font-weight="700" fill="#fca5a5">12V / 2A PSU</text>
    <text x="140" y="174" text-anchor="middle" font-size="9" fill="#fecaca">Power Supply</text>
  </g>
  <text x="38" y="206" text-anchor="end" font-size="10" fill="#94a3b8">AC</text>
  <text x="38" y="218" text-anchor="end" font-size="9" fill="#64748b">110-240V</text>
  <line x1="42" y1="210" x2="50" y2="210" stroke="#94a3b8" stroke-width="1.5"/>
  <!-- PSU outputs -->
  <circle cx="230" cy="200" r="5" fill="#ef4444"/>
  <text x="218" y="197" text-anchor="end" font-size="10" font-weight="600" fill="#ef4444" font-family="monospace">+12V</text>
  <circle cx="230" cy="250" r="5" fill="#64748b"/>
  <text x="218" y="247" text-anchor="end" font-size="10" font-weight="600" fill="#94a3b8" font-family="monospace">GND</text>

  <!-- 12V line → split -->
  <line x1="235" y1="200" x2="340" y2="200" stroke="#ef4444" stroke-width="2.5"/>
  <circle cx="340" cy="200" r="4" fill="#ef4444"/>

  <!-- ═══ UPPER: 12V → Vreg → ESP ═══ -->
  <line x1="340" y1="200" x2="340" y2="120" stroke="#ef4444" stroke-width="2.2"/>
  <line x1="340" y1="120" x2="398" y2="120" stroke="#ef4444" stroke-width="2.2" marker-end="url(#arr-red)"/>

  <!-- Voltage Regulator -->
  <g filter="url(#shadow)">
    <rect x="400" y="84" width="150" height="100" rx="8" fill="#1e293b" stroke="#334155" stroke-width="1.5"/>
    <rect x="400" y="84" width="150" height="28" rx="8" fill="#2e1065"/>
    <rect x="400" y="104" width="150" height="8" fill="#2e1065"/>
    <text x="475" y="102" text-anchor="middle" font-size="11" font-weight="700" fill="#c4b5fd">Voltage Regulator</text>
    <text x="475" y="148" text-anchor="middle" font-size="9" fill="#64748b">12V → 5V step-down</text>
    <text x="475" y="162" text-anchor="middle" font-size="9" fill="#64748b">e.g. MP1584 / LM7805</text>
  </g>
  <circle cx="400" cy="120" r="4" fill="#ef4444" opacity="0.8"/>
  <text x="412" y="133" font-size="8" fill="#fca5a5">12V IN</text>
  <circle cx="550" cy="120" r="4" fill="#a78bfa" opacity="0.8"/>
  <text x="538" y="133" text-anchor="end" font-size="8" fill="#c4b5fd">5V OUT</text>
  <circle cx="475" cy="184" r="4" fill="#64748b" opacity="0.8"/>

  <!-- 5V → ESP -->
  <line x1="554" y1="120" x2="648" y2="120" stroke="#a78bfa" stroke-width="2.2" marker-end="url(#arr-pur)"/>
  <rect x="584" y="105" width="24" height="14" rx="3" fill="#2e1065"/>
  <text x="596" y="115" text-anchor="middle" font-size="8" font-weight="600" fill="#c4b5fd">5V</text>

  <!-- ESP8266 -->
  <g filter="url(#shadow)">
    <rect x="650" y="84" width="160" height="100" rx="8" fill="#1e293b" stroke="#334155" stroke-width="1.5"/>
    <rect x="650" y="84" width="160" height="28" rx="8" fill="#1e3a5f"/>
    <rect x="650" y="104" width="160" height="8" fill="#1e3a5f"/>
    <text x="730" y="102" text-anchor="middle" font-size="12" font-weight="700" fill="#38bdf8">ESP8266</text>
    <text x="730" y="112" text-anchor="middle" font-size="9" fill="#7dd3fc">Wemos D1 Mini</text>
  </g>
  <circle cx="650" cy="120" r="4" fill="#a78bfa"/>
  <text x="662" y="138" font-size="8" fill="#94a3b8">5V</text>
  <circle cx="650" cy="155" r="4" fill="#64748b"/>
  <text x="662" y="158" font-size="8" fill="#94a3b8">GND</text>

  <!-- ESP GND down -->
  <line x1="646" y1="155" x2="620" y2="155" stroke="#64748b" stroke-width="2" opacity="0.7"/>
  <line x1="620" y1="155" x2="620" y2="460" stroke="#64748b" stroke-width="2" opacity="0.7"/>

  <!-- Vreg GND down -->
  <line x1="475" y1="188" x2="475" y2="460" stroke="#64748b" stroke-width="2" opacity="0.7"/>

  <!-- ═══ LOWER: 12V → Hopper ═══ -->
  <line x1="340" y1="200" x2="340" y2="310" stroke="#ef4444" stroke-width="2.2"/>
  <line x1="340" y1="310" x2="498" y2="310" stroke="#ef4444" stroke-width="2.2" marker-end="url(#arr-red)"/>
  <rect x="398" y="295" width="30" height="14" rx="3" fill="#450a0a"/>
  <text x="413" y="305" text-anchor="middle" font-size="8" font-weight="600" fill="#fca5a5">12V</text>

  <!-- Capacitor tee -->
  <circle cx="340" cy="310" r="4" fill="#ef4444"/>
  <line x1="340" y1="314" x2="340" y2="350" stroke="#ef4444" stroke-width="1.5"/>
  <!-- Cap symbol -->
  <line x1="326" y1="350" x2="354" y2="350" stroke="#94a3b8" stroke-width="2.5"/>
  <line x1="326" y1="360" x2="354" y2="360" stroke="#94a3b8" stroke-width="2.5"/>
  <text x="360" y="348" font-size="10" font-weight="700" fill="#94a3b8">+</text>
  <text x="316" y="384" text-anchor="middle" font-size="9" font-weight="600" fill="#94a3b8">2200µF</text>
  <text x="316" y="396" text-anchor="middle" font-size="9" fill="#64748b">25V</text>
  <line x1="340" y1="360" x2="340" y2="460" stroke="#64748b" stroke-width="1.5" opacity="0.7"/>

  <!-- Hopper box -->
  <g filter="url(#shadow)">
    <rect x="500" y="260" width="220" height="140" rx="8" fill="#1e293b" stroke="#334155" stroke-width="1.5"/>
    <rect x="500" y="260" width="220" height="28" rx="8" fill="#4a1d1d"/>
    <rect x="500" y="280" width="220" height="8" fill="#4a1d1d"/>
    <text x="610" y="278" text-anchor="middle" font-size="12" font-weight="700" fill="#fca5a5">Azkoyen Hopper U-II</text>
    <text x="610" y="288" text-anchor="middle" font-size="9" fill="#fecaca">12-24V ⎓ 450mA</text>
  </g>

  <!-- Hopper connector map inside box -->
  <rect x="520" y="310" width="180" height="68" rx="4" fill="#0f172a" stroke="#475569" stroke-width="0.8"/>
  <text x="610" y="325" text-anchor="middle" font-size="8" font-weight="600" fill="#475569">2×5 Molex</text>

  <!-- Top row mini pins -->
  <circle cx="540" cy="342" r="4" fill="#ef4444" opacity="0.7"/>
  <circle cx="568" cy="342" r="4" fill="#64748b" opacity="0.7"/>
  <circle cx="596" cy="342" r="4" fill="#334155" opacity="0.5"/>
  <circle cx="624" cy="342" r="4" fill="#f59e0b" opacity="0.5"/>
  <circle cx="652" cy="342" r="4" fill="#f97316" opacity="0.5"/>
  <text x="540" y="336" text-anchor="middle" font-size="5.5" fill="#fca5a5">VCC</text>
  <text x="568" y="336" text-anchor="middle" font-size="5.5" fill="#94a3b8">GND</text>
  <text x="596" y="336" text-anchor="middle" font-size="5.5" fill="#475569">HLvl</text>
  <text x="624" y="336" text-anchor="middle" font-size="5.5" fill="#fbbf24">Err</text>
  <text x="652" y="336" text-anchor="middle" font-size="5.5" fill="#fb923c">Emp</text>

  <!-- Bottom row mini pins -->
  <circle cx="540" cy="364" r="4" fill="#ef4444" opacity="0.7"/>
  <circle cx="568" cy="364" r="4" fill="#ef4444" opacity="0.7"/>
  <circle cx="596" cy="364" r="4" fill="#64748b" opacity="0.7"/>
  <circle cx="624" cy="364" r="4" fill="#22c55e" opacity="0.5"/>
  <circle cx="652" cy="364" r="4" fill="#3b82f6" opacity="0.5"/>
  <text x="540" y="375" text-anchor="middle" font-size="5.5" fill="#fca5a5">VCC</text>
  <text x="568" y="375" text-anchor="middle" font-size="5.5" fill="#fca5a5">VCC</text>
  <text x="596" y="375" text-anchor="middle" font-size="5.5" fill="#94a3b8">GND</text>
  <text x="624" y="375" text-anchor="middle" font-size="5.5" fill="#4ade80">Ctrl</text>
  <text x="652" y="375" text-anchor="middle" font-size="5.5" fill="#60a5fa">Coin</text>

  <!-- Hopper VCC input -->
  <circle cx="500" cy="310" r="4" fill="#ef4444"/>
  <text x="512" y="306" font-size="8" fill="#94a3b8">+12V (3 pins)</text>
  <!-- Hopper GND -->
  <circle cx="500" cy="370" r="4" fill="#64748b"/>
  <text x="512" y="394" font-size="8" fill="#94a3b8">GND (2 pins)</text>

  <!-- Signal pins note -->
  <circle cx="720" cy="340" r="4" fill="#22c55e"/>
  <text x="732" y="336" font-size="8" fill="#4ade80">Signals</text>
  <text x="732" y="348" font-size="8" fill="#64748b">to ESP via</text>
  <text x="732" y="360" font-size="8" fill="#64748b">dividers</text>

  <!-- Hopper GND down -->
  <line x1="496" y1="370" x2="475" y2="370" stroke="#64748b" stroke-width="2" opacity="0.7"/>
  <line x1="475" y1="370" x2="475" y2="460" stroke="#64748b" stroke-width="2" opacity="0.7"/>

  <!-- ═══ COMMON GND BUS ═══ -->
  <line x1="270" y1="460" x2="650" y2="460" stroke="#64748b" stroke-width="3" opacity="0.5"/>
  <circle cx="340" cy="460" r="3.5" fill="#64748b" opacity="0.8"/>
  <circle cx="475" cy="460" r="3.5" fill="#64748b" opacity="0.8"/>
  <circle cx="620" cy="460" r="3.5" fill="#64748b" opacity="0.8"/>
  <text x="340" y="452" text-anchor="middle" font-size="7.5" fill="#64748b">Cap</text>
  <text x="475" y="452" text-anchor="middle" font-size="7.5" fill="#64748b">Vreg+Hopper</text>
  <text x="620" y="452" text-anchor="middle" font-size="7.5" fill="#64748b">ESP</text>

  <!-- PSU GND to bus -->
  <line x1="235" y1="250" x2="270" y2="250" stroke="#64748b" stroke-width="2" opacity="0.7"/>
  <line x1="270" y1="250" x2="270" y2="460" stroke="#64748b" stroke-width="2" opacity="0.7"/>
  <circle cx="270" cy="460" r="3.5" fill="#64748b" opacity="0.8"/>
  <text x="270" y="452" text-anchor="middle" font-size="7.5" fill="#64748b">PSU</text>

  <rect x="428" y="470" width="90" height="16" rx="4" fill="#1e293b" stroke="#334155" stroke-width="0.8"/>
  <text x="473" y="482" text-anchor="middle" font-size="9" font-weight="600" fill="#94a3b8">COMMON GND</text>

  <!-- Earth symbol -->
  <line x1="460" y1="490" x2="460" y2="500" stroke="#64748b" stroke-width="1.5"/>
  <line x1="451" y1="500" x2="469" y2="500" stroke="#64748b" stroke-width="1.5"/>
  <line x1="454" y1="504" x2="466" y2="504" stroke="#64748b" stroke-width="1.2"/>
  <line x1="456" y1="508" x2="464" y2="508" stroke="#64748b" stroke-width="0.8"/>

  <!-- ═══ LEGEND ═══ -->
  <rect x="50" y="536" width="880" height="48" rx="8" fill="#1e293b" stroke="#334155" stroke-width="1" opacity="0.85"/>
  <text x="67" y="556" font-size="10" font-weight="700" fill="#94a3b8">Legend</text>
  <line x1="120" y1="560" x2="150" y2="560" stroke="#ef4444" stroke-width="2.5"/>
  <text x="158" y="564" font-size="9.5" fill="#fca5a5">12V Rail</text>
  <line x1="240" y1="560" x2="270" y2="560" stroke="#a78bfa" stroke-width="2.2"/>
  <text x="278" y="564" font-size="9.5" fill="#c4b5fd">5V Regulated</text>
  <line x1="390" y1="560" x2="420" y2="560" stroke="#64748b" stroke-width="2"/>
  <text x="428" y="564" font-size="9.5" fill="#94a3b8">Ground</text>
  <text x="520" y="564" font-size="9.5" fill="#64748b">⚠ Separate 12V PSU required — do not power hopper from USB (450mA draw)</text>
</svg>
