<svg xmlns="http://www.w3.org/2000/svg" xmlns:xlink="http://www.w3.org/1999/xlink" xml:lang="en" height="343.44000000000005pt" width="619.808pt" viewBox="-75.208 -24.2 619.808 343.44000000000005" style="background-color:white;"><path d="M 0.0,90.0 L 18.0,90.0 L 36.0,90.0" style="stroke:black;fill:none;stroke-width:2.0;stroke-dasharray:-;stroke-linecap:round;stroke-linejoin:round;" /><path d="M 36.0,90.0 L 126.0,90.0 L 126.0,-0.0 L 36.0,-0.0 L 36.0,90.0" style="stroke:black;fill:none;stroke-width:2.0;stroke-dasharray:-;stroke-linecap:round;stroke-linejoin:round;" /><path d="M 126.0,72.0 L 144.0,72.0" style="stroke:black;fill:none;stroke-width:2.0;stroke-dasharray:-;stroke-linecap:round;stroke-linejoin:round;" /><path d="M 126.0,18.0 L 144.0,18.0" style="stroke:black;fill:none;stroke-width:2.0;stroke-dasharray:-;stroke-linecap:round;stroke-linejoin:round;" /><path d="M 162.0,18.0 L 171.0,18.0 L 180.0,18.0" style="stroke:black;fill:none;stroke-width:2.0;stroke-dasharray:-;stroke-linecap:round;stroke-linejoin:round;" /><path d="M 180.0,162.0 L 198.0,162.0 L 216.0,162.0" style="stroke:black;fill:none;stroke-width:2.0;stroke-dasharray:-;stroke-linecap:round;stroke-linejoin:round;" /><path d="M 216.0,162.0 L 306.0,162.0 L 306.0,72.0 L 216.0,72.0 L 216.0,162.0" style="stroke:black;fill:none;stroke-width:2.0;stroke-dasharray:-;stroke-linecap:round;stroke-linejoin:round;" /><path d="M 306.0,144.0 L 324.0,144.0" style="stroke:black;fill:none;stroke-width:2.0;stroke-dasharray:-;stroke-linecap:round;stroke-linejoin:round;" /><path d="M 306.0,90.0 L 324.0,90.0" style="stroke:black;fill:none;stroke-width:2.0;stroke-dasharray:-;stroke-linecap:round;stroke-linejoin:round;" /><path d="M 342.0,144.0 L 360.0,144.0 L 378.0,144.0" style="stroke:black;fill:none;stroke-width:2.0;stroke-dasharray:-;stroke-linecap:round;stroke-linejoin:round;" /><path d="M 378.0,144.0 L 405.0,144.0 L 432.0,144.0" style="stroke:black;fill:none;stroke-width:2.0;stroke-dasharray:-;stroke-linecap:round;stroke-linejoin:round;" /><path d="M 432.0,144.0 L 522.0,144.0 L 522.0,36.0 L 432.0,36.0 L 432.0,144.0" style="stroke:black;fill:none;stroke-width:2.0;stroke-dasharray:-;stroke-linecap:round;stroke-linejoin:round;" /><path d="M 432.0,126.0 L 414.0,126.0" style="stroke:black;fill:none;stroke-width:2.0;stroke-dasharray:-;stroke-linecap:round;stroke-linejoin:round;" /><path d="M 432.0,54.0 L 414.0,54.0" style="stroke:black;fill:none;stroke-width:2.0;stroke-dasharray:-;stroke-linecap:round;stroke-linejoin:round;" /><path d="M 522.0,90.0 L 540.0,90.0" style="stroke:black;fill:none;stroke-width:2.0;stroke-dasharray:-;stroke-linecap:round;stroke-linejoin:round;" /><path d="M 378.0,162.0 L 378.0,167.4 L 378.0,172.79999999999998" style="stroke:black;fill:none;stroke-width:2.0;stroke-dasharray:-;stroke-linecap:round;stroke-linejoin:round;" /><path d="M 378.0,172.79999999999998 L 378.0,223.56 M 387.0,223.56 L 369.0,223.56 M 387.0,230.04 L 369.0,230.04 M 378.0,230.04 L 378.0,280.8" style="stroke:black;fill:none;stroke-width:2.0;stroke-dasharray:-;stroke-linecap:round;stroke-linejoin:round;" /><path d="M 378.0,280.8 L 378.0,286.2 L 378.0,291.59999999999997" style="stroke:black;fill:none;stroke-width:2.0;stroke-dasharray:-;stroke-linecap:round;stroke-linejoin:round;" /><path d="M 378.0,291.59999999999997 L 378.0,306.0 L 369.0,306.0 L 387.0,306.0 M 371.7,310.32 L 384.3,310.32 M 376.2,314.64 L 379.8,314.64" style="stroke:black;fill:none;stroke-width:2.0;stroke-dasharray:-;stroke-linecap:round;stroke-linejoin:round;" /><path d="M 396.0,54.0 L 378.0,54.0 L 360.0,53.99999999999999" style="stroke:black;fill:none;stroke-width:2.0;stroke-dasharray:-;stroke-linecap:round;stroke-linejoin:round;" /><path d="M 180.0,18.0 L 270.0,35.99999999999999 L 360.0,53.999999999999986" style="stroke:black;fill:none;stroke-width:2.0;stroke-dasharray:-;stroke-linecap:round;stroke-linejoin:round;" /><path d="M 342.0,90.0 L 351.0,90.0 L 360.0,90.0" style="stroke:black;fill:none;stroke-width:2.0;stroke-dasharray:-;stroke-linecap:round;stroke-linejoin:round;" /><path d="M 360.0,90.0 L 360.0,72.0 L 360.0,53.99999999999999" style="stroke:black;fill:none;stroke-width:2.0;stroke-dasharray:-;stroke-linecap:round;stroke-linejoin:round;" /><text x="3.6" y="-19.6" dominant-baseline="ideographic" fill="black" font-size="16" font-family="sans" text-anchor="middle"><tspan x="3.6" dy="16">Power Supply Wiring</tspan></text><text x="3.6" y="74.39999999999999" dominant-baseline="central" fill="black" font-size="12" font-family="sans" text-anchor="end"><tspan x="3.6" dy="12">USB</tspan></text><text x="128.70000000000002" y="58.3" dominant-baseline="ideographic" fill="black" font-size="11" font-family="sans" text-anchor="start"><tspan x="128.70000000000002" dy="11">1</tspan></text><text x="120.60000000000001" y="58.0" dominant-baseline="central" fill="black" font-size="14" font-family="sans" text-anchor="end"><tspan x="120.60000000000001" dy="14">5V</tspan></text><text x="128.70000000000002" y="4.299999999999994" dominant-baseline="ideographic" fill="black" font-size="11" font-family="sans" text-anchor="start"><tspan x="128.70000000000002" dy="11">2</tspan></text><text x="120.60000000000001" y="4.0" dominant-baseline="central" fill="black" font-size="14" font-family="sans" text-anchor="end"><tspan x="120.60000000000001" dy="14">GND</tspan></text><text x="81.0" y="27.0" dominant-baseline="central" fill="black" font-size="12" font-family="sans" text-anchor="middle"><tspan x="81.0" dy="12">ESP8266</tspan><tspan x="81.0" dy="12">(Wemos D1)</tspan></text><text x="183.6" y="146.4" dominant-baseline="central" fill="black" font-size="12" font-family="sans" text-anchor="end"><tspan x="183.6" dy="12">AC 110-240V</tspan></text><text x="308.7" y="130.29999999999998" dominant-baseline="ideographic" fill="black" font-size="11" font-family="sans" text-anchor="start"><tspan x="308.7" dy="11">1</tspan></text><text x="300.59999999999997" y="130.0" dominant-baseline="central" fill="black" font-size="14" font-family="sans" text-anchor="end"><tspan x="300.59999999999997" dy="14">+12V</tspan></text><text x="308.7" y="76.3" dominant-baseline="ideographic" fill="black" font-size="11" font-family="sans" text-anchor="start"><tspan x="308.7" dy="11">2</tspan></text><text x="300.59999999999997" y="76.0" dominant-baseline="central" fill="black" font-size="14" font-family="sans" text-anchor="end"><tspan x="300.59999999999997" dy="14">GND</tspan></text><text x="261.0" y="99.0" dominant-baseline="central" fill="black" font-size="12" font-family="sans" text-anchor="middle"><tspan x="261.0" dy="12">12V/2A</tspan><tspan x="261.0" dy="12">Power Supply</tspan></text><text x="429.3" y="112.3" dominant-baseline="ideographic" fill="black" font-size="11" font-family="sans" text-anchor="end"><tspan x="429.3" dy="11">1</tspan></text><text x="437.40000000000003" y="112.0" dominant-baseline="central" fill="black" font-size="14" font-family="sans" text-anchor="start"><tspan x="437.40000000000003" dy="14">12V</tspan></text><text x="429.3" y="40.3" dominant-baseline="ideographic" fill="black" font-size="11" font-family="sans" text-anchor="end"><tspan x="429.3" dy="11">2</tspan></text><text x="437.40000000000003" y="40.0" dominant-baseline="central" fill="black" font-size="14" font-family="sans" text-anchor="start"><tspan x="437.40000000000003" dy="14">GND</tspan></text><text x="524.6999999999999" y="76.3" dominant-baseline="ideographic" fill="black" font-size="11" font-family="sans" text-anchor="start"><tspan x="524.6999999999999" dy="11">3</tspan></text><text x="516.6" y="76.0" dominant-baseline="central" fill="black" font-size="14" font-family="sans" text-anchor="end"><tspan x="516.6" dy="14">Motor</tspan></text><text x="477.0" y="72.0" dominant-baseline="central" fill="black" font-size="12" font-family="sans" text-anchor="middle"><tspan x="477.0" dy="12">Azkoyen</tspan><tspan x="477.0" dy="12">Hopper</tspan></text><text x="378.0" y="145.2" dominant-baseline="ideographic" fill="black" font-size="12" font-family="sans" text-anchor="middle"><tspan x="378.0" dy="12">2200µF</tspan><tspan x="378.0" dy="12">25V</tspan></text><circle cx="180.0" cy="18.0" r="2.6999999999999997" style="stroke:black;fill:black;stroke-width:2.0;stroke-dasharray:-;" /><text x="180.0" y="12.3" dominant-baseline="hanging" fill="black" font-size="12" font-family="sans" text-anchor="middle"><tspan x="180.0" dy="12">GND</tspan></text><circle cx="378.0" cy="144.0" r="2.6999999999999997" style="stroke:black;fill:black;stroke-width:2.0;stroke-dasharray:-;" /><circle cx="360.0" cy="53.99999999999999" r="2.6999999999999997" style="stroke:black;fill:black;stroke-width:2.0;stroke-dasharray:-;" /><text x="360.0" y="48.3" dominant-baseline="hanging" fill="black" font-size="12" font-family="sans" text-anchor="middle"><tspan x="360.0" dy="12">GND</tspan></text></svg>