<svg xmlns="http://www.w3.org/2000/svg" xmlns:xlink="http://www.w3.org/1999/xlink" xml:lang="en" height="363.8pt" width="511.808pt" viewBox="-75.208 -139.6 511.808 363.8" style="background-color:white;"><path d="M 0.0,90.0 L 18.0,90.0 L 36.0,90.0" style="stroke:black;fill:none;stroke-width:2.0;stroke-dasharray:-;stroke-linecap:round;stroke-linejoin:round;" /><path d="M 36.0,90.0 L 126.0,90.0 L 126.0,-0.0 L 36.0,-0.0 L 36.0,90.0" style="stroke:black;fill:none;stroke-width:2.0;stroke-dasharray:-;stroke-linecap:round;stroke-linejoin:round;" /><path d="M 126.0,72.0 L 144.0,72.0" style="stroke:black;fill:none;stroke-width:2.0;stroke-dasharray:-;stroke-linecap:round;stroke-linejoin:round;" /><path d="M 126.0,18.0 L 144.0,18.0" style="stroke:black;fill:none;stroke-width:2.0;stroke-dasharray:-;stroke-linecap:round;stroke-linejoin:round;" /><path d="M 162.0,72.0 L 171.0,72.0 L 180.0,72.0" style="stroke:black;fill:none;stroke-width:2.0;stroke-dasharray:-;stroke-linecap:round;stroke-linejoin:round;" /><path d="M 180.0,72.0 L 180.0,36.0 L 180.0,-0.0" style="stroke:black;fill:none;stroke-width:2.0;stroke-dasharray:-;stroke-linecap:round;stroke-linejoin:round;" /><path d="M 180.0,-0.0 L 189.0,-0.0 L 198.0,-0.0" style="stroke:black;fill:none;stroke-width:2.0;stroke-dasharray:-;stroke-linecap:round;stroke-linejoin:round;" /><path d="M 198.0,-0.0 L 288.0,-0.0 L 288.0,-90.0 L 198.0,-90.0 L 198.0,-0.0" style="stroke:black;fill:none;stroke-width:2.0;stroke-dasharray:-;stroke-linecap:round;stroke-linejoin:round;" /><path d="M 198.0,-45.0 L 180.0,-45.0" style="stroke:black;fill:none;stroke-width:2.0;stroke-dasharray:-;stroke-linecap:round;stroke-linejoin:round;" /><path d="M 288.0,-45.0 L 306.0,-45.0" style="stroke:black;fill:none;stroke-width:2.0;stroke-dasharray:-;stroke-linecap:round;stroke-linejoin:round;" /><path d="M 243.0,-0.0 L 243.0,18.0" style="stroke:black;fill:none;stroke-width:2.0;stroke-dasharray:-;stroke-linecap:round;stroke-linejoin:round;" /><path d="M 324.0,-45.0 L 333.0,-45.0 L 342.0,-45.0" style="stroke:black;fill:none;stroke-width:2.0;stroke-dasharray:-;stroke-linecap:round;stroke-linejoin:round;" /><path d="M 342.0,-45.0 L 432.0,-45.0 L 432.0,-135.0 L 342.0,-135.0 L 342.0,-45.0" style="stroke:black;fill:none;stroke-width:2.0;stroke-dasharray:-;stroke-linecap:round;stroke-linejoin:round;" /><path d="M 342.0,-63.0 L 324.0,-63.0" style="stroke:black;fill:none;stroke-width:2.0;stroke-dasharray:-;stroke-linecap:round;stroke-linejoin:round;" /><path d="M 342.0,-117.0 L 324.0,-117.0" style="stroke:black;fill:none;stroke-width:2.0;stroke-dasharray:-;stroke-linecap:round;stroke-linejoin:round;" /><path d="M 306.0,-117.0 L 297.0,-117.0 L 288.0,-117.0" style="stroke:black;fill:none;stroke-width:2.0;stroke-dasharray:-;stroke-linecap:round;stroke-linejoin:round;" /><path d="M 243.0,36.0 L 243.0,45.0 L 243.0,54.0" style="stroke:black;fill:none;stroke-width:2.0;stroke-dasharray:-;stroke-linecap:round;stroke-linejoin:round;" /><path d="M 288.0,-117.0 L 265.5,-31.500000000000014 L 243.0,53.99999999999997" style="stroke:black;fill:none;stroke-width:2.0;stroke-dasharray:-;stroke-linecap:round;stroke-linejoin:round;" /><path d="M 180.0,72.0 L 198.0,72.0 L 216.0,72.0" style="stroke:black;fill:none;stroke-width:2.0;stroke-dasharray:-;stroke-linecap:round;stroke-linejoin:round;" /><path d="M 216.0,72.0 L 243.0,72.0 L 270.0,72.0" style="stroke:black;fill:none;stroke-width:2.0;stroke-dasharray:-;stroke-linecap:round;stroke-linejoin:round;" /><path d="M 270.0,72.0 L 360.0,72.0 L 360.0,-36.0 L 270.0,-36.0 L 270.0,72.0" style="stroke:black;fill:none;stroke-width:2.0;stroke-dasharray:-;stroke-linecap:round;stroke-linejoin:round;" /><path d="M 270.0,54.0 L 252.0,54.0" style="stroke:black;fill:none;stroke-width:2.0;stroke-dasharray:-;stroke-linecap:round;stroke-linejoin:round;" /><path d="M 270.0,-18.0 L 252.0,-18.0" style="stroke:black;fill:none;stroke-width:2.0;stroke-dasharray:-;stroke-linecap:round;stroke-linejoin:round;" /><path d="M 360.0,18.0 L 378.0,18.0" style="stroke:black;fill:none;stroke-width:2.0;stroke-dasharray:-;stroke-linecap:round;stroke-linejoin:round;" /><path d="M 216.0,90.0 L 216.0,95.39999999999999 L 216.0,100.8" style="stroke:black;fill:none;stroke-width:2.0;stroke-dasharray:-;stroke-linecap:round;stroke-linejoin:round;" /><path d="M 216.0,100.8 L 216.0,151.56 M 225.0,151.56 L 207.0,151.56 M 225.0,158.04 L 207.0,158.04 M 216.0,158.04 L 215.99999999999997,208.79999999999998" style="stroke:black;fill:none;stroke-width:2.0;stroke-dasharray:-;stroke-linecap:round;stroke-linejoin:round;" /><path d="M 215.99999999999997,208.79999999999998 L 215.99999999999997,214.20000000000002 L 215.99999999999997,219.6" style="stroke:black;fill:none;stroke-width:2.0;stroke-dasharray:-;stroke-linecap:round;stroke-linejoin:round;" /><path d="M 234.0,-18.0 L 216.0,-18.000000000000004 L 198.0,-18.000000000000004" style="stroke:black;fill:none;stroke-width:2.0;stroke-dasharray:-;stroke-linecap:round;stroke-linejoin:round;" /><path d="M 215.99999999999997,219.6 L 206.99999999999997,100.79999999999998 L 197.99999999999997,-18.000000000000032" style="stroke:black;fill:none;stroke-width:2.0;stroke-dasharray:-;stroke-linecap:round;stroke-linejoin:round;" /><path d="M 243.0,54.0 L 220.5,18.0 L 198.0,-18.0" style="stroke:black;fill:none;stroke-width:2.0;stroke-dasharray:-;stroke-linecap:round;stroke-linejoin:round;" /><path d="M 162.0,18.0 L 171.0,18.0 L 180.0,18.0" style="stroke:black;fill:none;stroke-width:2.0;stroke-dasharray:-;stroke-linecap:round;stroke-linejoin:round;" /><path d="M 180.0,18.0 L 211.5,35.99999999999999 L 243.0,53.99999999999999" style="stroke:black;fill:none;stroke-width:2.0;stroke-dasharray:-;stroke-linecap:round;stroke-linejoin:round;" /><text x="3.6" y="-19.6" dominant-baseline="ideographic" fill="black" font-size="16" font-family="sans" text-anchor="middle"><tspan x="3.6" dy="16">Power Supply Wiring</tspan></text><text x="3.6" y="74.39999999999999" dominant-baseline="central" fill="black" font-size="12" font-family="sans" text-anchor="end"><tspan x="3.6" dy="12">AC 110-240V</tspan></text><text x="128.70000000000002" y="58.3" dominant-baseline="ideographic" fill="black" font-size="11" font-family="sans" text-anchor="start"><tspan x="128.70000000000002" dy="11">1</tspan></text><text x="120.60000000000001" y="58.0" dominant-baseline="central" fill="black" font-size="14" font-family="sans" text-anchor="end"><tspan x="120.60000000000001" dy="14">+12V</tspan></text><text x="128.70000000000002" y="4.299999999999994" dominant-baseline="ideographic" fill="black" font-size="11" font-family="sans" text-anchor="start"><tspan x="128.70000000000002" dy="11">2</tspan></text><text x="120.60000000000001" y="4.0" dominant-baseline="central" fill="black" font-size="14" font-family="sans" text-anchor="end"><tspan x="120.60000000000001" dy="14">GND</tspan></text><text x="81.0" y="27.0" dominant-baseline="central" fill="black" font-size="12" font-family="sans" text-anchor="middle"><tspan x="81.0" dy="12">12V/2A</tspan><tspan x="81.0" dy="12">Power Supply</tspan></text><text x="195.29999999999998" y="-58.699999999999996" dominant-baseline="ideographic" fill="black" font-size="11" font-family="sans" text-anchor="end"><tspan x="195.29999999999998" dy="11">1</tspan></text><text x="203.4" y="-59.0" dominant-baseline="central" fill="black" font-size="14" font-family="sans" text-anchor="start"><tspan x="203.4" dy="14">12V</tspan></text><text x="290.7" y="-58.699999999999996" dominant-baseline="ideographic" fill="black" font-size="11" font-family="sans" text-anchor="start"><tspan x="290.7" dy="11">2</tspan></text><text x="282.59999999999997" y="-59.0" dominant-baseline="central" fill="black" font-size="14" font-family="sans" text-anchor="end"><tspan x="282.59999999999997" dy="14">5V</tspan></text><text x="245.70000000000002" y="-8.3" dominant-baseline="hanging" fill="black" font-size="11" font-family="sans" text-anchor="start"><tspan x="245.70000000000002" dy="11">3</tspan></text><text x="243.0" y="-19.4" dominant-baseline="ideographic" fill="black" font-size="14" font-family="sans" text-anchor="middle"><tspan x="243.0" dy="14">GND</tspan></text><text x="243.0" y="-63.0" dominant-baseline="central" fill="black" font-size="12" font-family="sans" text-anchor="middle"><tspan x="243.0" dy="12">Voltage</tspan><tspan x="243.0" dy="12">Regulator</tspan></text><text x="339.3" y="-76.7" dominant-baseline="ideographic" fill="black" font-size="11" font-family="sans" text-anchor="end"><tspan x="339.3" dy="11">1</tspan></text><text x="347.40000000000003" y="-77.0" dominant-baseline="central" fill="black" font-size="14" font-family="sans" text-anchor="start"><tspan x="347.40000000000003" dy="14">5V</tspan></text><text x="339.3" y="-130.7" dominant-baseline="ideographic" fill="black" font-size="11" font-family="sans" text-anchor="end"><tspan x="339.3" dy="11">2</tspan></text><text x="347.40000000000003" y="-131.0" dominant-baseline="central" fill="black" font-size="14" font-family="sans" text-anchor="start"><tspan x="347.40000000000003" dy="14">GND</tspan></text><text x="387.0" y="-108.0" dominant-baseline="central" fill="black" font-size="12" font-family="sans" text-anchor="middle"><tspan x="387.0" dy="12">ESP8266</tspan><tspan x="387.0" dy="12">(Wemos D1)</tspan></text><text x="267.3" y="40.300000000000004" dominant-baseline="ideographic" fill="black" font-size="11" font-family="sans" text-anchor="end"><tspan x="267.3" dy="11">1</tspan></text><text x="275.40000000000003" y="40.0" dominant-baseline="central" fill="black" font-size="14" font-family="sans" text-anchor="start"><tspan x="275.40000000000003" dy="14">12V</tspan></text><text x="267.3" y="-31.700000000000006" dominant-baseline="ideographic" fill="black" font-size="11" font-family="sans" text-anchor="end"><tspan x="267.3" dy="11">2</tspan></text><text x="275.40000000000003" y="-32.0" dominant-baseline="central" fill="black" font-size="14" font-family="sans" text-anchor="start"><tspan x="275.40000000000003" dy="14">GND</tspan></text><text x="362.7" y="4.300000000000001" dominant-baseline="ideographic" fill="black" font-size="11" font-family="sans" text-anchor="start"><tspan x="362.7" dy="11">3</tspan></text><text x="354.59999999999997" y="4.0" dominant-baseline="central" fill="black" font-size="14" font-family="sans" text-anchor="end"><tspan x="354.59999999999997" dy="14">Motor</tspan></text><text x="304.2" y="10.799999999999997" dominant-baseline="central" fill="black" font-size="12" font-family="sans" text-anchor="middle"><tspan x="304.2" dy="12">Azkoyen</tspan><tspan x="304.2" dy="12">Hopper</tspan></text><text x="216.0" y="73.19999999999999" dominant-baseline="ideographic" fill="black" font-size="12" font-family="sans" text-anchor="middle"><tspan x="216.0" dy="12">2200µF</tspan><tspan x="216.0" dy="12">25V</tspan></text><circle cx="180.0" cy="72.0" r="2.6999999999999997" style="stroke:black;fill:black;stroke-width:2.0;stroke-dasharray:-;" /><circle cx="288.0" cy="-117.0" r="2.6999999999999997" style="stroke:black;fill:black;stroke-width:2.0;stroke-dasharray:-;" /><circle cx="243.0" cy="54.0" r="2.6999999999999997" style="stroke:black;fill:black;stroke-width:2.0;stroke-dasharray:-;" /><text x="236.70000000000002" y="42.0" dominant-baseline="central" fill="black" font-size="12" font-family="sans" text-anchor="end"><tspan x="236.70000000000002" dy="12">GND</tspan></text><circle cx="216.0" cy="72.0" r="2.6999999999999997" style="stroke:black;fill:black;stroke-width:2.0;stroke-dasharray:-;" /><circle cx="198.0" cy="-18.000000000000004" r="2.6999999999999997" style="stroke:black;fill:black;stroke-width:2.0;stroke-dasharray:-;" /><text x="198.0" y="-23.700000000000003" dominant-baseline="hanging" fill="black" font-size="12" font-family="sans" text-anchor="middle"><tspan x="198.0" dy="12">GND</tspan></text></svg>