<svg xmlns="http://www.w3.org/2000/svg" xmlns:xlink="http://www.w3.org/1999/xlink" xml:lang="en" height="450.87999999999994pt" width="770.744pt" viewBox="-163.00000000000003 -286.43999999999994 770.744 450.87999999999994" style="background-color:white;"><circle cx="347.664" cy="95.39999999999998" r="19.8" style="stroke:black;fill:none;stroke-width:2.0;stroke-dasharray:-;" /><path d="M 0.0,90.0 L 164.064,90.0 L 164.064,-226.8 L 0.0,-226.8 L 0.0,90.0" style="stroke:black;fill:none;stroke-width:2.0;stroke-dasharray:-;stroke-linecap:round;stroke-linejoin:round;" /><path d="M 0.0,-68.4 L -18.0,-68.4" style="stroke:black;fill:none;stroke-width:2.0;stroke-dasharray:-;stroke-linecap:round;stroke-linejoin:round;" /><path d="M 164.064,46.8 L 182.064,46.8" style="stroke:black;fill:none;stroke-width:2.0;stroke-dasharray:-;stroke-linecap:round;stroke-linejoin:round;" /><path d="M 164.064,-10.80000000000001 L 182.064,-10.80000000000001" style="stroke:black;fill:none;stroke-width:2.0;stroke-dasharray:-;stroke-linecap:round;stroke-linejoin:round;" /><path d="M 164.064,-68.4 L 182.064,-68.4" style="stroke:black;fill:none;stroke-width:2.0;stroke-dasharray:-;stroke-linecap:round;stroke-linejoin:round;" /><path d="M 164.064,-126.00000000000003 L 182.064,-126.00000000000003" style="stroke:black;fill:none;stroke-width:2.0;stroke-dasharray:-;stroke-linecap:round;stroke-linejoin:round;" /><path d="M 164.064,-183.60000000000002 L 182.064,-183.60000000000002" style="stroke:black;fill:none;stroke-width:2.0;stroke-dasharray:-;stroke-linecap:round;stroke-linejoin:round;" /><path d="M 200.064,46.8 L 214.464,46.8 L 228.86399999999998,46.8" style="stroke:black;fill:none;stroke-width:2.0;stroke-dasharray:-;stroke-linecap:round;stroke-linejoin:round;" /><path d="M 228.86399999999998,46.8 L 264.864,46.8 L 267.864,37.8 L 273.864,55.8 L 279.864,37.8 L 285.864,55.8 L 291.864,37.8 L 297.864,55.8 L 300.864,46.8 L 336.864,46.8" style="stroke:black;fill:none;stroke-width:2.0;stroke-dasharray:-;stroke-linecap:round;stroke-linejoin:round;" /><path d="M 336.864,46.8 L 342.264,46.8 L 347.664,46.8" style="stroke:black;fill:none;stroke-width:2.0;stroke-dasharray:-;stroke-linecap:round;stroke-linejoin:round;" /><path d="M 347.664,46.8 L 347.664,61.19999999999999 L 347.664,75.6" style="stroke:black;fill:none;stroke-width:2.0;stroke-dasharray:-;stroke-linecap:round;stroke-linejoin:round;" /><path d="M 347.664,75.6 L 347.664,88.79999999999998" style="stroke:black;fill:none;stroke-width:2.0;stroke-dasharray:-;stroke-linecap:round;stroke-linejoin:round;" /><path d="M 360.86400000000003,88.79999999999998 L 334.464,88.79999999999998" style="stroke:black;fill:none;stroke-width:2.0;stroke-dasharray:-;stroke-linecap:round;stroke-linejoin:round;" /><path d="M 354.264,88.79999999999998 L 366.144,102.66 L 372.744,102.66" style="stroke:black;fill:none;stroke-width:2.0;stroke-dasharray:-;stroke-linecap:round;stroke-linejoin:round;" /><path d="M 341.064,88.79999999999998 L 329.184,102.65999999999998 L 322.584,102.65999999999998" style="stroke:black;fill:none;stroke-width:2.0;stroke-dasharray:-;stroke-linecap:round;stroke-linejoin:round;" /><path d="M 372.744,102.66 L 372.744,93.66 L 372.744,84.66" style="stroke:black;fill:none;stroke-width:2.0;stroke-dasharray:-;stroke-linecap:round;stroke-linejoin:round;" /><path d="M 372.744,84.66 L 372.744,48.66 L 363.744,45.66 L 381.744,39.66 L 363.744,33.660000000000004 L 381.744,27.66 L 363.744,21.659999999999997 L 381.744,15.660000000000002 L 372.744,12.659999999999997 L 372.744,-23.340000000000003" style="stroke:black;fill:none;stroke-width:2.0;stroke-dasharray:-;stroke-linecap:round;stroke-linejoin:round;" /><path d="M 372.744,-23.340000000000003 L 372.744,-28.740000000000006 L 372.744,-34.14000000000001" style="stroke:black;fill:none;stroke-width:2.0;stroke-dasharray:-;stroke-linecap:round;stroke-linejoin:round;" /><path d="M 322.584,102.65999999999998 L 322.584,108.05999999999997 L 322.584,113.45999999999998" style="stroke:black;fill:none;stroke-width:2.0;stroke-dasharray:-;stroke-linecap:round;stroke-linejoin:round;" /><path d="M 322.584,113.45999999999998 L 322.584,127.85999999999997 L 313.584,127.85999999999997 L 331.584,127.85999999999997 M 316.284,132.17999999999998 L 328.884,132.17999999999998 M 320.784,136.49999999999997 L 324.384,136.49999999999997" style="stroke:black;fill:none;stroke-width:2.0;stroke-dasharray:-;stroke-linecap:round;stroke-linejoin:round;" /><path d="M 372.744,84.66 L 408.744,84.66 L 444.744,84.66" style="stroke:black;fill:none;stroke-width:2.0;stroke-dasharray:-;stroke-linecap:round;stroke-linejoin:round;" /><path d="M 200.064,-10.80000000000001 L 227.064,-10.80000000000001 L 254.064,-10.80000000000001" style="stroke:black;fill:none;stroke-width:2.0;stroke-dasharray:-;stroke-linecap:round;stroke-linejoin:round;" /><path d="M 254.064,-10.80000000000001 L 290.06399999999996,-10.80000000000001 L 293.06399999999996,-19.80000000000001 L 299.06399999999996,-1.8000000000000096 L 305.064,-19.80000000000001 L 311.06399999999996,-1.8000000000000096 L 317.06399999999996,-19.80000000000001 L 323.064,-1.8000000000000096 L 326.06399999999996,-10.80000000000001 L 362.06399999999996,-10.80000000000001" style="stroke:black;fill:none;stroke-width:2.0;stroke-dasharray:-;stroke-linecap:round;stroke-linejoin:round;" /><path d="M 362.06399999999996,-10.80000000000001 L 371.06399999999996,-10.80000000000001 L 380.06399999999996,-10.80000000000001" style="stroke:black;fill:none;stroke-width:2.0;stroke-dasharray:-;stroke-linecap:round;stroke-linejoin:round;" /><path d="M 254.064,-10.80000000000001 L 254.064,3.599999999999991 L 254.064,17.999999999999993" style="stroke:black;fill:none;stroke-width:2.0;stroke-dasharray:-;stroke-linecap:round;stroke-linejoin:round;" /><path d="M 254.064,17.999999999999993 L 254.064,53.99999999999999 L 263.064,56.999999999999986 L 245.064,62.99999999999999 L 263.064,68.99999999999999 L 245.064,74.99999999999999 L 263.064,81.0 L 245.064,86.99999999999997 L 254.064,90.0 L 254.06399999999996,126.0" style="stroke:black;fill:none;stroke-width:2.0;stroke-dasharray:-;stroke-linecap:round;stroke-linejoin:round;" /><path d="M 254.06399999999996,126.0 L 254.06399999999996,131.4 L 254.06399999999996,136.79999999999998" style="stroke:black;fill:none;stroke-width:2.0;stroke-dasharray:-;stroke-linecap:round;stroke-linejoin:round;" /><path d="M 254.06399999999996,136.79999999999998 L 254.06399999999996,151.20000000000002 L 245.06399999999996,151.20000000000002 L 263.06399999999996,151.20000000000002 M 247.76399999999998,155.52 L 260.364,155.52 M 252.26399999999998,159.83999999999997 L 255.86399999999995,159.83999999999997" style="stroke:black;fill:none;stroke-width:2.0;stroke-dasharray:-;stroke-linecap:round;stroke-linejoin:round;" /><path d="M 200.064,-68.4 L 227.064,-68.4 L 254.064,-68.4" style="stroke:black;fill:none;stroke-width:2.0;stroke-dasharray:-;stroke-linecap:round;stroke-linejoin:round;" /><path d="M 254.064,-68.4 L 290.06399999999996,-68.4 L 293.06399999999996,-77.4 L 299.06399999999996,-59.40000000000001 L 305.064,-77.4 L 311.06399999999996,-59.40000000000001 L 317.06399999999996,-77.4 L 323.064,-59.40000000000001 L 326.06399999999996,-68.4 L 362.06399999999996,-68.4" style="stroke:black;fill:none;stroke-width:2.0;stroke-dasharray:-;stroke-linecap:round;stroke-linejoin:round;" /><path d="M 362.06399999999996,-68.4 L 371.06399999999996,-68.4 L 380.06399999999996,-68.4" style="stroke:black;fill:none;stroke-width:2.0;stroke-dasharray:-;stroke-linecap:round;stroke-linejoin:round;" /><path d="M 254.064,-68.4 L 254.064,-54.000000000000014 L 254.064,-39.60000000000001" style="stroke:black;fill:none;stroke-width:2.0;stroke-dasharray:-;stroke-linecap:round;stroke-linejoin:round;" /><path d="M 254.064,-39.60000000000001 L 254.064,-3.600000000000011 L 263.064,-0.6000000000000139 L 245.064,5.399999999999989 L 263.064,11.399999999999984 L 245.064,17.399999999999984 L 263.064,23.399999999999988 L 245.064,29.399999999999984 L 254.064,32.39999999999999 L 254.06399999999996,68.39999999999999" style="stroke:black;fill:none;stroke-width:2.0;stroke-dasharray:-;stroke-linecap:round;stroke-linejoin:round;" /><path d="M 254.06399999999996,68.39999999999999 L 254.06399999999996,73.8 L 254.06399999999996,79.19999999999999" style="stroke:black;fill:none;stroke-width:2.0;stroke-dasharray:-;stroke-linecap:round;stroke-linejoin:round;" /><path d="M 254.06399999999996,79.19999999999999 L 254.06399999999996,93.6 L 245.06399999999996,93.6 L 263.06399999999996,93.6 M 247.76399999999998,97.91999999999999 L 260.364,97.91999999999999 M 252.26399999999998,102.24 L 255.86399999999995,102.24" style="stroke:black;fill:none;stroke-width:2.0;stroke-dasharray:-;stroke-linecap:round;stroke-linejoin:round;" /><path d="M 200.064,-126.00000000000003 L 227.064,-126.00000000000003 L 254.064,-126.00000000000003" style="stroke:black;fill:none;stroke-width:2.0;stroke-dasharray:-;stroke-linecap:round;stroke-linejoin:round;" /><path d="M 254.064,-126.00000000000003 L 290.06399999999996,-126.00000000000003 L 293.06399999999996,-135.00000000000003 L 299.06399999999996,-117.00000000000003 L 305.064,-135.00000000000003 L 311.06399999999996,-117.00000000000003 L 317.06399999999996,-135.00000000000003 L 323.064,-117.00000000000003 L 326.06399999999996,-126.00000000000003 L 362.06399999999996,-126.00000000000003" style="stroke:black;fill:none;stroke-width:2.0;stroke-dasharray:-;stroke-linecap:round;stroke-linejoin:round;" /><path d="M 362.06399999999996,-126.00000000000003 L 371.06399999999996,-126.00000000000003 L 380.06399999999996,-126.00000000000003" style="stroke:black;fill:none;stroke-width:2.0;stroke-dasharray:-;stroke-linecap:round;stroke-linejoin:round;" /><path d="M 254.064,-126.00000000000003 L 254.064,-111.60000000000004 L 254.064,-97.20000000000005" style="stroke:black;fill:none;stroke-width:2.0;stroke-dasharray:-;stroke-linecap:round;stroke-linejoin:round;" /><path d="M 254.064,-97.20000000000005 L 254.064,-61.20000000000004 L 263.064,-58.20000000000004 L 245.064,-52.20000000000004 L 263.064,-46.200000000000045 L 245.064,-40.20000000000004 L 263.064,-34.20000000000004 L 245.064,-28.200000000000045 L 254.064,-25.20000000000004 L 254.06399999999996,10.799999999999962" style="stroke:black;fill:none;stroke-width:2.0;stroke-dasharray:-;stroke-linecap:round;stroke-linejoin:round;" /><path d="M 254.06399999999996,10.799999999999962 L 254.06399999999996,16.199999999999964 L 254.06399999999996,21.599999999999962" style="stroke:black;fill:none;stroke-width:2.0;stroke-dasharray:-;stroke-linecap:round;stroke-linejoin:round;" /><path d="M 254.06399999999996,21.599999999999962 L 254.06399999999996,35.999999999999964 L 245.06399999999996,35.999999999999964 L 263.06399999999996,35.999999999999964 M 247.76399999999998,40.319999999999965 L 260.364,40.319999999999965 M 252.26399999999998,44.63999999999996 L 255.86399999999995,44.63999999999996" style="stroke:black;fill:none;stroke-width:2.0;stroke-dasharray:-;stroke-linecap:round;stroke-linejoin:round;" /><path d="M 200.064,-183.60000000000002 L 209.064,-183.60000000000002 L 218.064,-183.60000000000002" style="stroke:black;fill:none;stroke-width:2.0;stroke-dasharray:-;stroke-linecap:round;stroke-linejoin:round;" /><path d="M 218.064,-183.60000000000002 L 308.06399999999996,-183.60000000000002 L 398.06399999999996,-183.60000000000002" style="stroke:black;fill:none;stroke-width:2.0;stroke-dasharray:-;stroke-linecap:round;stroke-linejoin:round;" /><path d="M 480.744,12.659999999999997 L 603.144,12.659999999999997 L 603.144,-210.53999999999996 L 480.744,-210.53999999999996 L 480.744,12.659999999999997" style="stroke:black;fill:none;stroke-width:2.0;stroke-dasharray:-;stroke-linecap:round;stroke-linejoin:round;" /><path d="M 480.744,-23.340000000000003 L 462.744,-23.340000000000003" style="stroke:black;fill:none;stroke-width:2.0;stroke-dasharray:-;stroke-linecap:round;stroke-linejoin:round;" /><path d="M 480.744,-73.74 L 462.744,-73.74" style="stroke:black;fill:none;stroke-width:2.0;stroke-dasharray:-;stroke-linecap:round;stroke-linejoin:round;" /><path d="M 480.744,-124.14 L 462.744,-124.14" style="stroke:black;fill:none;stroke-width:2.0;stroke-dasharray:-;stroke-linecap:round;stroke-linejoin:round;" /><path d="M 480.744,-174.53999999999996 L 462.744,-174.53999999999996" style="stroke:black;fill:none;stroke-width:2.0;stroke-dasharray:-;stroke-linecap:round;stroke-linejoin:round;" /><path d="M 516.744,-210.53999999999996 L 516.744,-228.53999999999996" style="stroke:black;fill:none;stroke-width:2.0;stroke-dasharray:-;stroke-linecap:round;stroke-linejoin:round;" /><path d="M 567.144,-210.53999999999996 L 567.144,-228.53999999999996" style="stroke:black;fill:none;stroke-width:2.0;stroke-dasharray:-;stroke-linecap:round;stroke-linejoin:round;" /><path d="M 516.744,12.659999999999997 L 516.744,30.659999999999997" style="stroke:black;fill:none;stroke-width:2.0;stroke-dasharray:-;stroke-linecap:round;stroke-linejoin:round;" /><path d="M 567.144,12.659999999999997 L 567.144,30.659999999999997" style="stroke:black;fill:none;stroke-width:2.0;stroke-dasharray:-;stroke-linecap:round;stroke-linejoin:round;" /><path d="M 444.744,84.66 L 453.744,30.659999999999997 L 462.744,-23.340000000000003" style="stroke:black;fill:none;stroke-width:2.0;stroke-dasharray:-;stroke-linecap:round;stroke-linejoin:round;" /><path d="M 380.06399999999996,-10.80000000000001 L 421.404,-42.27 L 462.744,-73.74000000000001" style="stroke:black;fill:none;stroke-width:2.0;stroke-dasharray:-;stroke-linecap:round;stroke-linejoin:round;" /><path d="M 380.06399999999996,-68.4 L 421.40400000000005,-96.27000000000001 L 462.744,-124.14" style="stroke:black;fill:none;stroke-width:2.0;stroke-dasharray:-;stroke-linecap:round;stroke-linejoin:round;" /><path d="M 380.06399999999996,-126.00000000000003 L 421.404,-150.26999999999998 L 462.744,-174.53999999999996" style="stroke:black;fill:none;stroke-width:2.0;stroke-dasharray:-;stroke-linecap:round;stroke-linejoin:round;" /><path d="M 516.744,-246.53999999999996 L 516.744,-255.53999999999996 L 516.744,-264.53999999999996" style="stroke:black;fill:none;stroke-width:2.0;stroke-dasharray:-;stroke-linecap:round;stroke-linejoin:round;" /><path d="M 516.744,48.66 L 516.744,57.66 L 516.744,66.66" style="stroke:black;fill:none;stroke-width:2.0;stroke-dasharray:-;stroke-linecap:round;stroke-linejoin:round;" /><path d="M 516.744,66.66 L 457.404,-58.47000000000001 L 398.06399999999996,-183.60000000000002" style="stroke:black;fill:none;stroke-width:2.0;stroke-dasharray:-;stroke-linecap:round;stroke-linejoin:round;" /><text x="3.6" y="-19.6" dominant-baseline="ideographic" fill="black" font-size="16" font-family="sans" text-anchor="middle"><tspan x="3.6" dy="16">Azkoyen Hopper U-II ↔ Wemos D1 Mini Wiring</tspan></text><text x="-2.6999999999999997" y="-82.10000000000002" dominant-baseline="ideographic" fill="black" font-size="11" font-family="sans" text-anchor="end"><tspan x="-2.6999999999999997" dy="11">6</tspan></text><text x="5.3999999999999995" y="-82.4" dominant-baseline="central" fill="black" font-size="14" font-family="sans" text-anchor="start"><tspan x="5.3999999999999995" dy="14">5V (USB)</tspan></text><text x="166.764" y="33.099999999999994" dominant-baseline="ideographic" fill="black" font-size="11" font-family="sans" text-anchor="start"><tspan x="166.764" dy="11">1</tspan></text><text x="158.664" y="25.799999999999997" dominant-baseline="central" fill="black" font-size="14" font-family="sans" text-anchor="end"><tspan x="158.664" dy="14">D1 (GPIO5)</tspan><tspan x="158.664" dy="14">Control</tspan></text><text x="166.764" y="-24.500000000000014" dominant-baseline="ideographic" fill="black" font-size="11" font-family="sans" text-anchor="start"><tspan x="166.764" dy="11">2</tspan></text><text x="158.664" y="-31.80000000000001" dominant-baseline="central" fill="black" font-size="14" font-family="sans" text-anchor="end"><tspan x="158.664" dy="14">D2 (GPIO4)</tspan><tspan x="158.664" dy="14">Coin</tspan></text><text x="166.764" y="-82.10000000000002" dominant-baseline="ideographic" fill="black" font-size="11" font-family="sans" text-anchor="start"><tspan x="166.764" dy="11">3</tspan></text><text x="158.664" y="-89.4" dominant-baseline="central" fill="black" font-size="14" font-family="sans" text-anchor="end"><tspan x="158.664" dy="14">D5 (GPIO14)</tspan><tspan x="158.664" dy="14">Error</tspan></text><text x="166.764" y="-139.70000000000005" dominant-baseline="ideographic" fill="black" font-size="11" font-family="sans" text-anchor="start"><tspan x="166.764" dy="11">4</tspan></text><text x="158.664" y="-147.00000000000003" dominant-baseline="central" fill="black" font-size="14" font-family="sans" text-anchor="end"><tspan x="158.664" dy="14">D6 (GPIO12)</tspan><tspan x="158.664" dy="14">Empty</tspan></text><text x="166.764" y="-197.3" dominant-baseline="ideographic" fill="black" font-size="11" font-family="sans" text-anchor="start"><tspan x="166.764" dy="11">5</tspan></text><text x="158.664" y="-197.60000000000002" dominant-baseline="central" fill="black" font-size="14" font-family="sans" text-anchor="end"><tspan x="158.664" dy="14">GND</tspan></text><text x="82.032" y="-84.9" dominant-baseline="central" fill="black" font-size="11" font-family="sans" text-anchor="middle"><tspan x="82.032" dy="11">Wemos D1 Mini</tspan><tspan x="82.032" dy="11">ESP8266</tspan></text><text x="282.864" y="12.199999999999996" dominant-baseline="ideographic" fill="black" font-size="11" font-family="sans" text-anchor="middle"><tspan x="282.864" dy="11">R1</tspan><tspan x="282.864" dy="11">1kΩ</tspan></text><text x="347.664" y="60.999999999999986" dominant-baseline="ideographic" fill="black" font-size="11" font-family="sans" text-anchor="middle"><tspan x="347.664" dy="11">BC547</tspan></text><text x="372.744" y="77.26" dominant-baseline="hanging" fill="black" font-size="11" font-family="sans" text-anchor="middle"><tspan x="372.744" dy="11">R2</tspan><tspan x="372.744" dy="11">10kΩ</tspan></text><text x="308.06399999999996" y="-34.400000000000006" dominant-baseline="ideographic" fill="black" font-size="11" font-family="sans" text-anchor="middle"><tspan x="308.06399999999996" dy="11">R3: 10kΩ</tspan></text><text x="254.064" y="-7.600000000000012" dominant-baseline="ideographic" fill="black" font-size="11" font-family="sans" text-anchor="middle"><tspan x="254.064" dy="11">R4</tspan><tspan x="254.064" dy="11">3.3kΩ</tspan></text><text x="308.06399999999996" y="-92.00000000000001" dominant-baseline="ideographic" fill="black" font-size="11" font-family="sans" text-anchor="middle"><tspan x="308.06399999999996" dy="11">R5: 10kΩ</tspan></text><text x="254.064" y="-65.20000000000002" dominant-baseline="ideographic" fill="black" font-size="11" font-family="sans" text-anchor="middle"><tspan x="254.064" dy="11">R6</tspan><tspan x="254.064" dy="11">3.3kΩ</tspan></text><text x="308.06399999999996" y="-149.60000000000002" dominant-baseline="ideographic" fill="black" font-size="11" font-family="sans" text-anchor="middle"><tspan x="308.06399999999996" dy="11">R7: 10kΩ</tspan></text><text x="254.064" y="-122.80000000000004" dominant-baseline="ideographic" fill="black" font-size="11" font-family="sans" text-anchor="middle"><tspan x="254.064" dy="11">R8</tspan><tspan x="254.064" dy="11">3.3kΩ</tspan></text><text x="478.04400000000004" y="-37.040000000000006" dominant-baseline="ideographic" fill="black" font-size="11" font-family="sans" text-anchor="end"><tspan x="478.04400000000004" dy="11">3</tspan></text><text x="486.14400000000006" y="-37.34" dominant-baseline="central" fill="black" font-size="14" font-family="sans" text-anchor="start"><tspan x="486.14400000000006" dy="14">Control</tspan></text><text x="478.04400000000004" y="-87.44000000000001" dominant-baseline="ideographic" fill="black" font-size="11" font-family="sans" text-anchor="end"><tspan x="478.04400000000004" dy="11">4</tspan></text><text x="486.14400000000006" y="-87.74" dominant-baseline="central" fill="black" font-size="14" font-family="sans" text-anchor="start"><tspan x="486.14400000000006" dy="14">Coin</tspan></text><text x="478.04400000000004" y="-137.84" dominant-baseline="ideographic" fill="black" font-size="11" font-family="sans" text-anchor="end"><tspan x="478.04400000000004" dy="11">5</tspan></text><text x="486.14400000000006" y="-138.14" dominant-baseline="central" fill="black" font-size="14" font-family="sans" text-anchor="start"><tspan x="486.14400000000006" dy="14">Error</tspan></text><text x="478.04400000000004" y="-188.23999999999998" dominant-baseline="ideographic" fill="black" font-size="11" font-family="sans" text-anchor="end"><tspan x="478.04400000000004" dy="11">6</tspan></text><text x="486.14400000000006" y="-188.53999999999996" dominant-baseline="central" fill="black" font-size="14" font-family="sans" text-anchor="start"><tspan x="486.14400000000006" dy="14">Empty</tspan></text><text x="519.444" y="-224.23999999999998" dominant-baseline="ideographic" fill="black" font-size="11" font-family="sans" text-anchor="start"><tspan x="519.444" dy="11">1</tspan></text><text x="516.744" y="-219.13999999999996" dominant-baseline="hanging" fill="black" font-size="14" font-family="sans" text-anchor="middle"><tspan x="516.744" dy="14">VCC</tspan></text><text x="569.844" y="-224.23999999999998" dominant-baseline="ideographic" fill="black" font-size="11" font-family="sans" text-anchor="start"><tspan x="569.844" dy="11">2</tspan></text><text x="567.144" y="-219.13999999999996" dominant-baseline="hanging" fill="black" font-size="14" font-family="sans" text-anchor="middle"><tspan x="567.144" dy="14">VCC</tspan></text><text x="519.444" y="4.359999999999998" dominant-baseline="hanging" fill="black" font-size="11" font-family="sans" text-anchor="start"><tspan x="519.444" dy="11">7</tspan></text><text x="516.744" y="-6.740000000000003" dominant-baseline="ideographic" fill="black" font-size="14" font-family="sans" text-anchor="middle"><tspan x="516.744" dy="14">GND</tspan></text><text x="569.844" y="4.359999999999998" dominant-baseline="hanging" fill="black" font-size="11" font-family="sans" text-anchor="start"><tspan x="569.844" dy="11">8</tspan></text><text x="567.144" y="-6.740000000000003" dominant-baseline="ideographic" fill="black" font-size="14" font-family="sans" text-anchor="middle"><tspan x="567.144" dy="14">GND</tspan></text><text x="513.144" y="-81.14" dominant-baseline="central" fill="black" font-size="11" font-family="sans" text-anchor="middle"><tspan x="513.144" dy="11">Azkoyen Hopper U-II</tspan></text><circle cx="347.664" cy="46.8" r="2.6999999999999997" style="stroke:black;fill:black;stroke-width:2.0;stroke-dasharray:-;" /><circle cx="372.744" cy="84.66" r="2.6999999999999997" style="stroke:black;fill:black;stroke-width:2.0;stroke-dasharray:-;" /><circle cx="372.744" cy="-34.14000000000001" r="2.6999999999999997" style="stroke:black;fill:black;stroke-width:2.0;stroke-dasharray:-;" /><text x="372.744" y="-51.440000000000005" dominant-baseline="ideographic" fill="black" font-size="11" font-family="sans" text-anchor="middle"><tspan x="372.744" dy="11">+12V</tspan></text><circle cx="254.064" cy="-10.80000000000001" r="2.6999999999999997" style="stroke:black;fill:black;stroke-width:2.0;stroke-dasharray:-;" /><circle cx="254.064" cy="-68.4" r="2.6999999999999997" style="stroke:black;fill:black;stroke-width:2.0;stroke-dasharray:-;" /><circle cx="254.064" cy="-126.00000000000003" r="2.6999999999999997" style="stroke:black;fill:black;stroke-width:2.0;stroke-dasharray:-;" /><circle cx="218.064" cy="-183.60000000000002" r="2.6999999999999997" style="stroke:black;fill:black;stroke-width:2.0;stroke-dasharray:-;" /><text x="218.064" y="-188.3" dominant-baseline="hanging" fill="black" font-size="11" font-family="sans" text-anchor="middle"><tspan x="218.064" dy="11">Common</tspan><tspan x="218.064" dy="11">GND</tspan></text><circle cx="516.744" cy="-264.53999999999996" r="2.6999999999999997" style="stroke:black;fill:black;stroke-width:2.0;stroke-dasharray:-;" /><text x="516.744" y="-281.84" dominant-baseline="ideographic" fill="black" font-size="11" font-family="sans" text-anchor="middle"><tspan x="516.744" dy="11">+12V</tspan></text><circle cx="516.744" cy="66.66" r="2.6999999999999997" style="stroke:black;fill:black;stroke-width:2.0;stroke-dasharray:-;" /></svg>