<svg xmlns="http://www.w3.org/2000/svg" xmlns:xlink="http://www.w3.org/1999/xlink" xml:lang="en" height="407.6pt" width="621.6320000000001pt" viewBox="-141.688 -289.0 621.6320000000001 407.6" style="background-color:white;"><path d="M 178.34400000000002,64.80000000000001 L 178.34400000000002,7.200000000000008 L 246.5639777043149,7.200000000000008 L 246.5639777043149,64.80000000000001 L 178.34400000000002,64.80000000000001" style="stroke:black;fill:none;stroke-width:2;stroke-dasharray:-;stroke-linecap:round;stroke-linejoin:round;" /><path d="M 187.34 18.0 a 4.5 4.5 -270 1 1 0.0 9.0" style="stroke:black;fill:none;stroke-width:2;stroke-dasharray:-;" /><path d="M 187.34 27.0 a 4.5 4.5 -270 1 1 0.0 9.0" style="stroke:black;fill:none;stroke-width:2;stroke-dasharray:-;" /><path d="M 187.34 36.0 a 4.5 4.5 -270 1 1 0.0 9.0" style="stroke:black;fill:none;stroke-width:2;stroke-dasharray:-;" /><path d="M 187.34 45.0 a 4.5 4.5 -270 1 1 0.0 9.0" style="stroke:black;fill:none;stroke-width:2;stroke-dasharray:-;" /><path d="M 0.0,36.0 L 115.34400000000001,36.0 L 115.34400000000001,-165.6 L 0.0,-165.6 L 0.0,36.0" style="stroke:black;fill:none;stroke-width:2.0;stroke-dasharray:-;stroke-linecap:round;stroke-linejoin:round;" /><path d="M 0.0,-32.4 L -18.0,-32.4" style="stroke:black;fill:none;stroke-width:2.0;stroke-dasharray:-;stroke-linecap:round;stroke-linejoin:round;" /><path d="M 0.0,-97.2 L -18.0,-97.2" style="stroke:black;fill:none;stroke-width:2.0;stroke-dasharray:-;stroke-linecap:round;stroke-linejoin:round;" /><path d="M 115.34400000000001,7.993605777301127e-15 L 133.344,7.993605777301127e-15" style="stroke:black;fill:none;stroke-width:2.0;stroke-dasharray:-;stroke-linecap:round;stroke-linejoin:round;" /><path d="M 115.34400000000001,-64.8 L 133.344,-64.8" style="stroke:black;fill:none;stroke-width:2.0;stroke-dasharray:-;stroke-linecap:round;stroke-linejoin:round;" /><path d="M 115.34400000000001,-129.6 L 133.344,-129.6" style="stroke:black;fill:none;stroke-width:2.0;stroke-dasharray:-;stroke-linecap:round;stroke-linejoin:round;" /><path d="M 151.34400000000002,7.993605777301127e-15 L 169.34400000000002,7.993605777301127e-15 L 187.34400000000002,7.993605777301127e-15" style="stroke:black;fill:none;stroke-width:2.0;stroke-dasharray:-;stroke-linecap:round;stroke-linejoin:round;" /><path d="M 187.34400000000002,7.993605777301127e-15 L 187.34400000000002,18.000000000000007 M 187.34400000000002,54.00000000000001 L 187.34400000000002,72.0" style="stroke:black;fill:none;stroke-width:2;stroke-dasharray:-;stroke-linecap:round;stroke-linejoin:round;" /><path d="M 197.2439777043149,18.000000000000007 L 197.2439777043149,36.00000000000001 L 197.2439777043149,54.00000000000001" style="stroke:black;fill:none;stroke-width:2;stroke-dasharray:-;stroke-linecap:round;stroke-linejoin:round;" /><path d="M 221.3639777043149,7.993605777301127e-15 L 221.3639777043149,18.000000000000007 M 224.96397770431489,26.640000000000008 L 237.5639777043149,46.80000000000001 M 221.3639777043149,54.00000000000001 L 221.3639777043149,72.0" style="stroke:black;fill:none;stroke-width:2;stroke-dasharray:-;stroke-linecap:round;stroke-linejoin:round;" /><path d="M 199.0439777043149,36.00000000000001 L 207.05396655647235,36.00000000000001 L 215.06395540862977,36.00000000000001" style="stroke:black;fill:none;stroke-width:2;stroke-dasharray:2,3.3;stroke-linecap:round;stroke-linejoin:round;" /><path d="M 187.34400000000002,7.993605777301127e-15 L 205.34400000000002,7.993605777301127e-15 L 223.34400000000002,7.993605777301127e-15" style="stroke:black;fill:none;stroke-width:2.0;stroke-dasharray:-;stroke-linecap:round;stroke-linejoin:round;" /><path d="M 223.34400000000002,7.993605777301127e-15 L 250.34400000000002,7.993605777301127e-15 L 277.34400000000005,7.993605777301127e-15" style="stroke:black;fill:none;stroke-width:2.0;stroke-dasharray:-;stroke-linecap:round;stroke-linejoin:round;" /><path d="M 151.34400000000002,-64.8 L 169.34400000000002,-64.8 L 187.34400000000002,-64.8" style="stroke:black;fill:none;stroke-width:2.0;stroke-dasharray:-;stroke-linecap:round;stroke-linejoin:round;" /><path d="M 187.34400000000002,-64.8 L 232.34400000000002,-64.8 L 277.34400000000005,-64.8" style="stroke:black;fill:none;stroke-width:2.0;stroke-dasharray:-;stroke-linecap:round;stroke-linejoin:round;" /><path d="M 277.34400000000005,-64.8 L 304.34400000000005,-64.8 L 331.34400000000005,-64.8" style="stroke:black;fill:none;stroke-width:2.0;stroke-dasharray:-;stroke-linecap:round;stroke-linejoin:round;" /><path d="M 151.34400000000002,-129.6 L 169.34400000000002,-129.6 L 187.34400000000002,-129.6" style="stroke:black;fill:none;stroke-width:2.0;stroke-dasharray:-;stroke-linecap:round;stroke-linejoin:round;" /><path d="M 187.34400000000002,-129.6 L 232.34400000000002,-129.6 L 277.34400000000005,-129.6" style="stroke:black;fill:none;stroke-width:2.0;stroke-dasharray:-;stroke-linecap:round;stroke-linejoin:round;" /><path d="M 277.34400000000005,-129.6 L 304.34400000000005,-129.6 L 331.34400000000005,-129.6" style="stroke:black;fill:none;stroke-width:2.0;stroke-dasharray:-;stroke-linecap:round;stroke-linejoin:round;" /><path d="M 0.0,-97.2 L 9.0,-97.2 L 18.0,-97.2" style="stroke:black;fill:none;stroke-width:2.0;stroke-dasharray:-;stroke-linecap:round;stroke-linejoin:round;" /><path d="M 18.0,-97.2 L 17.999999999999996,-88.2 L 17.999999999999996,-79.2" style="stroke:black;fill:none;stroke-width:2.0;stroke-dasharray:-;stroke-linecap:round;stroke-linejoin:round;" /><path d="M 17.999999999999996,-79.2 L 17.999999999999996,-64.80000000000001 L 8.999999999999996,-64.80000000000001 L 26.999999999999996,-64.80000000000001 M 11.699999999999996,-60.480000000000004 L 24.299999999999994,-60.480000000000004 M 16.199999999999996,-56.160000000000004 L 19.799999999999997,-56.160000000000004" style="stroke:black;fill:none;stroke-width:2.0;stroke-dasharray:-;stroke-linecap:round;stroke-linejoin:round;" /><path d="M 17.999999999999996,-79.2 L 63.0,-79.2 L 108.0,-79.2" style="stroke:black;fill:none;stroke-width:2.0;stroke-dasharray:-;stroke-linecap:round;stroke-linejoin:round;" /><path d="M 385.34400000000005,7.993605777301127e-15 L 475.34400000000005,7.993605777301127e-15 L 475.34400000000005,-266.40000000000003 L 385.34400000000005,-266.40000000000003 L 385.34400000000005,7.993605777301127e-15" style="stroke:black;fill:none;stroke-width:2.0;stroke-dasharray:-;stroke-linecap:round;stroke-linejoin:round;" /><path d="M 385.34400000000005,-35.99999999999999 L 367.34400000000005,-35.99999999999999" style="stroke:black;fill:none;stroke-width:2.0;stroke-dasharray:-;stroke-linecap:round;stroke-linejoin:round;" /><path d="M 385.34400000000005,-100.8 L 367.34400000000005,-100.8" style="stroke:black;fill:none;stroke-width:2.0;stroke-dasharray:-;stroke-linecap:round;stroke-linejoin:round;" /><path d="M 385.34400000000005,-165.6 L 367.34400000000005,-165.6" style="stroke:black;fill:none;stroke-width:2.0;stroke-dasharray:-;stroke-linecap:round;stroke-linejoin:round;" /><path d="M 385.34400000000005,-230.4 L 367.34400000000005,-230.4" style="stroke:black;fill:none;stroke-width:2.0;stroke-dasharray:-;stroke-linecap:round;stroke-linejoin:round;" /><path d="M 430.34400000000005,-266.40000000000003 L 430.34400000000005,-284.40000000000003" style="stroke:black;fill:none;stroke-width:2.0;stroke-dasharray:-;stroke-linecap:round;stroke-linejoin:round;" /><text x="3.6" y="-19.6" dominant-baseline="ideographic" fill="black" font-size="16" font-family="sans" text-anchor="middle"><tspan x="3.6" dy="16">ESP8266 ↔ Azkoyen Hopper U-II Wiring</tspan></text><text x="-2.6999999999999997" y="-46.099999999999994" dominant-baseline="ideographic" fill="black" font-size="11" font-family="sans" text-anchor="end"><tspan x="-2.6999999999999997" dy="11">1</tspan></text><text x="5.3999999999999995" y="-46.4" dominant-baseline="central" fill="black" font-size="14" font-family="sans" text-anchor="start"><tspan x="5.3999999999999995" dy="14">5V</tspan></text><text x="-2.6999999999999997" y="-110.9" dominant-baseline="ideographic" fill="black" font-size="11" font-family="sans" text-anchor="end"><tspan x="-2.6999999999999997" dy="11">2</tspan></text><text x="5.3999999999999995" y="-111.2" dominant-baseline="central" fill="black" font-size="14" font-family="sans" text-anchor="start"><tspan x="5.3999999999999995" dy="14">GND</tspan></text><text x="118.04400000000001" y="-13.69999999999999" dominant-baseline="ideographic" fill="black" font-size="11" font-family="sans" text-anchor="start"><tspan x="118.04400000000001" dy="11">3</tspan></text><text x="109.94400000000002" y="-20.999999999999993" dominant-baseline="central" fill="black" font-size="14" font-family="sans" text-anchor="end"><tspan x="109.94400000000002" dy="14">D5</tspan><tspan x="109.94400000000002" dy="14">(GPIO14)</tspan></text><text x="118.04400000000001" y="-78.5" dominant-baseline="ideographic" fill="black" font-size="11" font-family="sans" text-anchor="start"><tspan x="118.04400000000001" dy="11">4</tspan></text><text x="109.94400000000002" y="-85.8" dominant-baseline="central" fill="black" font-size="14" font-family="sans" text-anchor="end"><tspan x="109.94400000000002" dy="14">D6</tspan><tspan x="109.94400000000002" dy="14">(GPIO12)</tspan></text><text x="118.04400000000001" y="-143.29999999999998" dominant-baseline="ideographic" fill="black" font-size="11" font-family="sans" text-anchor="start"><tspan x="118.04400000000001" dy="11">5</tspan></text><text x="109.94400000000002" y="-150.6" dominant-baseline="central" fill="black" font-size="14" font-family="sans" text-anchor="end"><tspan x="109.94400000000002" dy="14">D8</tspan><tspan x="109.94400000000002" dy="14">(GPIO15)</tspan></text><text x="57.672000000000004" y="-82.8" dominant-baseline="central" fill="black" font-size="12" font-family="sans" text-anchor="middle"><tspan x="57.672000000000004" dy="12">Wemos D1 Mini</tspan><tspan x="57.672000000000004" dy="12">(ESP8266)</tspan></text><text x="169.34400000000002" y="-19.199999999999992" dominant-baseline="ideographic" fill="black" font-size="12" font-family="sans" text-anchor="middle"><tspan x="169.34400000000002" dy="12">3.3V</tspan></text><circle cx="221.3639777043149" cy="22.320000000000007" r="4.32" style="stroke:black;fill:white;stroke-width:2;stroke-dasharray:-;" /><circle cx="221.3639777043149" cy="49.68000000000001" r="4.32" style="stroke:black;fill:white;stroke-width:2;stroke-dasharray:-;" /><text x="212.45398885215744" y="78.0" dominant-baseline="hanging" fill="black" font-size="12" font-family="sans" text-anchor="middle"><tspan x="212.45398885215744" dy="12">Relay/</tspan><tspan x="212.45398885215744" dy="12">Level Shifter</tspan></text><text x="205.34400000000002" y="-19.199999999999992" dominant-baseline="ideographic" fill="black" font-size="12" font-family="sans" text-anchor="middle"><tspan x="205.34400000000002" dy="12">12V</tspan></text><text x="280.944" y="-15.599999999999993" dominant-baseline="central" fill="black" font-size="12" font-family="sans" text-anchor="start"><tspan x="280.944" dy="12">Motor Enable</tspan></text><text x="334.944" y="-86.39999999999999" dominant-baseline="central" fill="black" font-size="12" font-family="sans" text-anchor="start"><tspan x="334.944" dy="12">Pulse Out</tspan><tspan x="334.944" dy="12">(30ms pulses)</tspan></text><text x="334.944" y="-151.2" dominant-baseline="central" fill="black" font-size="12" font-family="sans" text-anchor="start"><tspan x="334.944" dy="12">Hopper Low</tspan><tspan x="334.944" dy="12">(optional)</tspan></text><text x="111.60000000000001" y="-94.80000000000001" dominant-baseline="central" fill="black" font-size="12" font-family="sans" text-anchor="start"><tspan x="111.60000000000001" dy="12">Common GND</tspan></text><text x="382.64400000000006" y="-49.69999999999999" dominant-baseline="ideographic" fill="black" font-size="11" font-family="sans" text-anchor="end"><tspan x="382.64400000000006" dy="11">1</tspan></text><text x="390.744" y="-56.99999999999999" dominant-baseline="central" fill="black" font-size="14" font-family="sans" text-anchor="start"><tspan x="390.744" dy="14">Motor</tspan><tspan x="390.744" dy="14">Enable</tspan></text><text x="382.64400000000006" y="-114.5" dominant-baseline="ideographic" fill="black" font-size="11" font-family="sans" text-anchor="end"><tspan x="382.64400000000006" dy="11">2</tspan></text><text x="390.744" y="-121.8" dominant-baseline="central" fill="black" font-size="14" font-family="sans" text-anchor="start"><tspan x="390.744" dy="14">Pulse</tspan><tspan x="390.744" dy="14">Out</tspan></text><text x="382.64400000000006" y="-179.29999999999998" dominant-baseline="ideographic" fill="black" font-size="11" font-family="sans" text-anchor="end"><tspan x="382.64400000000006" dy="11">3</tspan></text><text x="390.744" y="-186.6" dominant-baseline="central" fill="black" font-size="14" font-family="sans" text-anchor="start"><tspan x="390.744" dy="14">Hopper</tspan><tspan x="390.744" dy="14">Low</tspan></text><text x="382.64400000000006" y="-244.10000000000002" dominant-baseline="ideographic" fill="black" font-size="11" font-family="sans" text-anchor="end"><tspan x="382.64400000000006" dy="11">4</tspan></text><text x="390.744" y="-244.4" dominant-baseline="central" fill="black" font-size="14" font-family="sans" text-anchor="start"><tspan x="390.744" dy="14">GND</tspan></text><text x="433.044" y="-280.1" dominant-baseline="ideographic" fill="black" font-size="11" font-family="sans" text-anchor="start"><tspan x="433.044" dy="11">5</tspan></text><text x="430.34400000000005" y="-275.0" dominant-baseline="hanging" fill="black" font-size="14" font-family="sans" text-anchor="middle"><tspan x="430.34400000000005" dy="14">12V</tspan><tspan x="430.34400000000005" dy="14">Power</tspan></text><text x="430.34400000000005" y="-151.20000000000002" dominant-baseline="central" fill="black" font-size="12" font-family="sans" text-anchor="middle"><tspan x="430.34400000000005" dy="12">Azkoyen</tspan><tspan x="430.34400000000005" dy="12">Hopper U-II</tspan></text><circle cx="223.34400000000002" cy="7.993605777301127e-15" r="2.6999999999999997" style="stroke:black;fill:black;stroke-width:2.0;stroke-dasharray:-;" /><circle cx="187.34400000000002" cy="-64.8" r="2.6999999999999997" style="stroke:black;fill:black;stroke-width:2.0;stroke-dasharray:-;" /><circle cx="187.34400000000002" cy="-129.6" r="2.6999999999999997" style="stroke:black;fill:black;stroke-width:2.0;stroke-dasharray:-;" /><circle cx="18.0" cy="-97.2" r="2.6999999999999997" style="stroke:black;fill:black;stroke-width:2.0;stroke-dasharray:-;" /></svg>